<svg xmlns="http://www.w3.org/2000/svg" xmlns:xlink="http://www.w3.org/1999/xlink" version="1.1" x="0px" y="0px" viewBox="0 0 100 125" enable-background="new 0 0 100 100" xml:space="preserve"><g><path d="M35.965,100c-0.001,0,0,0-0.001,0c-6.611,0-12.707-1.682-18.118-4.994c-9.437-5.781-15.79-16.68-17.428-29.9   c-1.607-12.968,1.466-26.927,8.432-38.3C18.977,10.271,35.607,0,52.252,0C59.1,0,65.421,1.744,71.037,5.185   c6.196,3.795,7.825,11.271,3.964,18.179c-5.076,9.079-5.92,20.859,3.635,26.712c2.984,1.826,4.813,5.324,5.017,9.595   c0.195,4.089-1.09,8.616-3.618,12.744C69.771,89.172,52.473,100,35.965,100z M52.252,5.021c-14.909,0-29.899,9.352-39.12,24.407   C6.75,39.849,3.932,52.629,5.401,64.488c1.45,11.696,6.942,21.259,15.067,26.235c4.61,2.822,9.824,4.255,15.495,4.255   c14.799,0.002,30.417-9.885,39.788-25.187c2.008-3.277,3.032-6.787,2.885-9.882c-0.124-2.584-1.08-4.606-2.624-5.552   c-10.734-6.576-12.903-20.017-5.396-33.445c1.94-3.47,2.528-8.55-2.201-11.447C63.599,6.517,58.161,5.021,52.252,5.021z"/><path d="M53.877,69.664c-3.465,0-6.57-1.418-8.52-3.892c-3.899-4.95-2.268-12.764,3.637-17.417   c2.748-2.165,6.037-3.357,9.262-3.357c3.466,0,6.572,1.419,8.522,3.893c1.954,2.482,2.6,5.708,1.816,9.09   c-0.737,3.178-2.674,6.134-5.455,8.325C60.394,68.472,57.104,69.664,53.877,69.664z M58.256,50.02   c-2.104,0-4.289,0.809-6.153,2.279c-3.731,2.94-4.988,7.589-2.801,10.365c1.005,1.274,2.63,1.979,4.576,1.979   c2.104,0,4.29-0.81,6.154-2.281c1.888-1.486,3.192-3.444,3.671-5.514c0.433-1.865,0.125-3.588-0.869-4.849   C61.827,50.723,60.202,50.02,58.256,50.02z"/><path d="M19.71,53.927c-1.4,0-2.772-0.388-3.969-1.122c-1.732-1.059-2.948-2.731-3.422-4.708c-0.475-1.975-0.152-4.017,0.91-5.75   c1.394-2.276,3.82-3.634,6.491-3.634c1.399,0,2.771,0.388,3.968,1.121c1.732,1.061,2.948,2.733,3.423,4.708s0.152,4.017-0.909,5.75   C24.806,52.567,22.38,53.927,19.71,53.927z M19.719,43.734c-0.909,0-1.735,0.462-2.209,1.236c-0.361,0.588-0.471,1.283-0.31,1.954   c0.162,0.671,0.575,1.238,1.163,1.599c0.409,0.25,0.874,0.382,1.347,0.382c0.909,0,1.734-0.462,2.208-1.235   c0.36-0.589,0.47-1.282,0.309-1.954c-0.162-0.671-0.574-1.24-1.164-1.6C20.657,43.866,20.191,43.734,19.719,43.734z"/><path d="M33.061,35.015c-1.399,0-2.771-0.388-3.969-1.122c-1.732-1.06-2.948-2.732-3.423-4.708c-0.475-1.975-0.151-4.018,0.91-5.75   c1.393-2.275,3.819-3.633,6.491-3.633c1.398,0,2.771,0.387,3.968,1.12c3.577,2.191,4.704,6.883,2.514,10.459   C38.157,33.656,35.73,35.015,33.061,35.015z M33.07,24.822c-0.909,0-1.735,0.461-2.208,1.235c-0.362,0.59-0.472,1.283-0.31,1.954   c0.161,0.671,0.574,1.239,1.163,1.6c0.409,0.25,0.874,0.382,1.346,0.382c0.909,0,1.735-0.462,2.208-1.236   c0.745-1.215,0.361-2.81-0.854-3.554C34.007,24.954,33.542,24.822,33.07,24.822z"/><path d="M38.182,89.739c-1.398,0-2.77-0.389-3.967-1.12c-3.576-2.191-4.704-6.884-2.515-10.459   c1.395-2.277,3.821-3.635,6.493-3.635c1.398,0,2.77,0.386,3.967,1.118c3.577,2.192,4.704,6.885,2.514,10.461   C43.279,88.38,40.852,89.739,38.182,89.739z M38.192,79.547c-0.91,0-1.736,0.461-2.21,1.235c-0.744,1.215-0.361,2.81,0.855,3.555   c0.407,0.249,0.872,0.381,1.345,0.381c0.909,0,1.735-0.463,2.209-1.236c0.744-1.216,0.361-2.811-0.854-3.554   C39.131,79.678,38.665,79.547,38.192,79.547z"/><path d="M18.782,76.861c-1.398,0-2.771-0.389-3.968-1.12c-1.733-1.062-2.948-2.734-3.423-4.71c-0.475-1.975-0.151-4.017,0.91-5.751   c1.394-2.273,3.82-3.633,6.49-3.633c1.399,0,2.771,0.387,3.968,1.12c1.732,1.062,2.948,2.732,3.423,4.71   c0.475,1.975,0.152,4.017-0.909,5.749C23.879,75.502,21.453,76.861,18.782,76.861z M18.792,66.669   c-0.909,0-1.735,0.461-2.208,1.236c-0.361,0.588-0.47,1.282-0.309,1.953c0.162,0.671,0.575,1.24,1.164,1.601   c0.406,0.249,0.872,0.381,1.344,0.381c0.909,0,1.736-0.461,2.209-1.235c0.36-0.589,0.47-1.283,0.309-1.954   c-0.161-0.671-0.574-1.239-1.163-1.601C19.729,66.801,19.265,66.669,18.792,66.669z"/><path d="M55.331,26.944c-1.398,0-2.771-0.387-3.968-1.121c-1.733-1.062-2.949-2.734-3.423-4.71   c-0.475-1.976-0.151-4.018,0.912-5.75c1.391-2.274,3.818-3.633,6.489-3.633c1.399,0,2.771,0.387,3.968,1.12   c1.732,1.062,2.949,2.734,3.424,4.71c0.475,1.975,0.151,4.017-0.91,5.75C60.429,25.586,58.002,26.944,55.331,26.944z    M55.341,16.752c-0.909,0-1.733,0.461-2.206,1.234c-0.362,0.59-0.473,1.284-0.312,1.956s0.574,1.239,1.162,1.6   c0.407,0.25,0.873,0.381,1.346,0.381c0.909,0,1.735-0.462,2.209-1.235c0.361-0.589,0.471-1.283,0.309-1.954   c-0.16-0.671-0.573-1.24-1.163-1.601C56.278,16.883,55.813,16.752,55.341,16.752z"/></g><path d="M100,15.966c0-0.159-1.422-15.919-7.688-15.919c-6.268,0-7.689,15.76-7.689,15.919c0,1.78,0.635,3.416,1.689,4.708  c-0.432,7.493-0.7,18.444-0.7,28.638c0,12.907,0.44,25.065,1.24,34.236c1.224,14.037,2.673,16.405,5.46,16.405  c2.786,0,4.235-2.368,5.459-16.405c0.799-9.172,1.239-21.33,1.239-34.236c0-10.193-0.269-21.145-0.7-28.637  C99.365,19.382,100,17.747,100,15.966z M93.835,34.556h-3.047c0.096-4.024,0.227-7.829,0.387-11.135  c0.372,0.054,0.75,0.092,1.138,0.092c0.387,0,0.764-0.037,1.136-0.092C93.608,26.728,93.739,30.532,93.835,34.556z M92.312,5.688  C93.586,7.962,95,13.737,95,15.966c0,1.404-1.206,2.546-2.688,2.546c-1.483,0-2.689-1.142-2.689-2.546  C89.623,13.737,91.037,7.961,92.312,5.688z M92.312,87.823c-0.918-7.897-1.699-21.241-1.699-38.512c0-3.222,0.027-6.519,0.078-9.755  h3.242c0.051,3.237,0.078,6.534,0.078,9.755C94.011,66.581,93.23,79.926,92.312,87.823z"/><text x="0" y="115" fill="#000000" font-size="5px" font-weight="bold" font-family="'Helvetica Neue', Helvetica, Arial-Unicode, Arial, Sans-serif">Created by LAFS</text><text x="0" y="120" fill="#000000" font-size="5px" font-weight="bold" font-family="'Helvetica Neue', Helvetica, Arial-Unicode, Arial, Sans-serif">from the Noun Project</text></svg>